<svg width="251" height="97" viewBox="0 0 251 97" fill="none" xmlns="http://www.w3.org/2000/svg">
<rect x="1.4058" y="1.4058" width="247.42" height="94.1884" rx="7.02899" stroke="#0C4E93" stroke-width="2.81159"/>
<path d="M91.2381 34.319C85.8729 34.319 83.1903 31.4892 83.1903 25.8296C83.1903 20.1209 85.8729 17.2666 91.2381 17.2666C92.8902 17.2666 94.624 17.6673 96.4397 18.4688V21.9284C94.8694 20.8815 93.3155 20.3581 91.7779 20.3581C90.273 20.3581 89.1444 20.7834 88.3919 21.6339C87.6559 22.4682 87.2878 23.8667 87.2878 25.8296C87.2878 27.7924 87.664 29.1828 88.4165 30.0007C89.1853 30.8185 90.363 31.2275 91.9496 31.2275C92.6039 31.2275 93.3155 31.1048 94.0842 30.8594C94.853 30.6141 95.6382 30.2297 96.4397 29.7062V33.1658C95.769 33.5093 94.9512 33.7874 93.9861 34C93.021 34.2126 92.105 34.319 91.2381 34.319ZM104.951 34.3435C103.708 34.3435 102.628 34.2535 101.712 34.0736C100.796 33.91 99.9454 33.6238 99.1603 33.2149V29.4363C99.8964 30.0252 100.731 30.4832 101.663 30.8103C102.612 31.1211 103.536 31.2765 104.435 31.2765C105.973 31.2765 106.742 30.6958 106.742 29.5345C106.742 29.0274 106.497 28.6348 106.006 28.3568C105.515 28.0623 104.722 27.7352 103.626 27.3753C103.119 27.2118 102.808 27.1054 102.693 27.0564C101.516 26.6638 100.583 26.1322 99.8964 25.4615C99.2257 24.7909 98.8904 23.7931 98.8904 22.4682C98.8904 21.5358 99.1194 20.677 99.5774 19.8919C100.035 19.0904 100.739 18.4525 101.687 17.9781C102.636 17.5037 103.806 17.2666 105.196 17.2666C106.161 17.2666 106.987 17.3565 107.674 17.5365C108.378 17.7 109.122 17.9699 109.907 18.3461V22.1492C109.22 21.6258 108.484 21.1923 107.699 20.8488C106.914 20.5053 106.12 20.3335 105.319 20.3335C104.599 20.3335 104.018 20.4808 103.577 20.7752C103.151 21.0533 102.939 21.4622 102.939 22.002C102.939 22.4273 103.07 22.7789 103.331 23.057C103.593 23.3187 103.912 23.5232 104.288 23.6704C104.681 23.8176 105.302 24.0221 106.153 24.2838C107.167 24.5782 108.001 24.9054 108.656 25.2652C109.31 25.6251 109.833 26.1076 110.226 26.7129C110.619 27.3181 110.815 28.095 110.815 29.0438C110.815 30.0416 110.586 30.9412 110.128 31.7427C109.67 32.5442 108.991 33.1821 108.091 33.6565C107.208 34.1145 106.161 34.3435 104.951 34.3435ZM120.854 34.319C115.488 34.319 112.806 31.4892 112.806 25.8296C112.806 20.1209 115.488 17.2666 120.854 17.2666C122.506 17.2666 124.24 17.6673 126.055 18.4688V21.9284C124.485 20.8815 122.931 20.3581 121.393 20.3581C119.889 20.3581 118.76 20.7834 118.007 21.6339C117.271 22.4682 116.903 23.8667 116.903 25.8296C116.903 27.7924 117.28 29.1828 118.032 30.0007C118.801 30.8185 119.979 31.2275 121.565 31.2275C122.219 31.2275 122.931 31.1048 123.7 30.8594C124.469 30.6141 125.254 30.2297 126.055 29.7062V33.1658C125.385 33.5093 124.567 33.7874 123.602 34C122.637 34.2126 121.721 34.319 120.854 34.319ZM143.138 34.3435C140.603 34.3435 138.64 33.6565 137.25 32.2825C135.859 30.9085 135.164 28.7575 135.164 25.8296C135.164 22.9343 135.868 20.7834 137.274 19.3766C138.681 17.9699 140.636 17.2666 143.138 17.2666C145.118 17.2666 147.064 17.6673 148.978 18.4688V22.0756C147.866 21.4867 146.9 21.0533 146.083 20.7752C145.281 20.4971 144.463 20.3581 143.629 20.3581C142.14 20.3581 141.028 20.7752 140.292 21.6094C139.572 22.4273 139.213 23.8258 139.213 25.805C139.213 27.7515 139.581 29.1501 140.317 30.0007C141.053 30.8349 142.1 31.252 143.457 31.252C144.422 31.252 145.175 31.1211 145.715 30.8594V27.9642H143.016V24.8727H149.689V32.5769C147.563 33.7546 145.379 34.3435 143.138 34.3435ZM153.052 22.8853C153.297 22.6726 153.723 22.4354 154.328 22.1737C154.95 21.912 155.637 21.6912 156.389 21.5113C157.158 21.315 157.894 21.2168 158.597 21.2168C159.955 21.2168 160.895 21.4213 161.419 21.8302V24.5046C160.765 24.3574 159.824 24.2838 158.597 24.2838C157.828 24.2838 157.199 24.3247 156.708 24.4065V34H153.052V22.8853ZM168.969 21.2168C170.327 21.2168 171.562 21.5358 172.674 22.1737C173.787 22.7953 174.343 23.9239 174.343 25.5597L174.318 31.4237C174.302 32.4542 173.787 33.2067 172.772 33.681C171.758 34.139 170.278 34.368 168.331 34.368C164.7 34.368 162.884 32.9531 162.884 30.1233C162.884 28.9293 163.253 27.9969 163.989 27.3263C164.741 26.6556 165.853 26.3203 167.325 26.3203C167.931 26.3203 168.536 26.4021 169.141 26.5656C169.746 26.7129 170.27 26.9091 170.711 27.1545V26.3694C170.711 24.9463 169.795 24.2347 167.963 24.2347C167.26 24.2347 166.532 24.3656 165.78 24.6273C165.044 24.8727 164.455 25.1753 164.013 25.5351V22.2964C164.455 22.002 165.125 21.7484 166.025 21.5358C166.941 21.3231 167.922 21.2168 168.969 21.2168ZM168.454 31.7918C169.305 31.7918 169.894 31.7345 170.221 31.62C170.548 31.5055 170.711 31.2765 170.711 30.933V29.0192C170.139 28.8229 169.509 28.7248 168.822 28.7248C168.021 28.7248 167.432 28.8475 167.056 29.0928C166.696 29.3218 166.516 29.6899 166.516 30.1969C166.516 30.6713 166.704 31.0557 167.08 31.3501C167.473 31.6446 167.931 31.7918 168.454 31.7918ZM191.721 21.2414C193.454 21.2414 194.738 21.5849 195.573 22.2719C196.407 22.9425 196.824 24.0712 196.824 25.6578V34H193.168V26.3939C193.168 24.9708 192.367 24.2593 190.764 24.2593C190.093 24.2593 189.529 24.4147 189.071 24.7255C189.103 25.118 189.12 25.4288 189.12 25.6578V34H185.464V26.3939C185.464 24.9708 184.662 24.2593 183.059 24.2593C182.405 24.2593 181.8 24.3983 181.244 24.6764V34H177.588V22.6399C178.226 22.2964 179.199 21.9774 180.508 21.683C181.816 21.3886 182.986 21.2414 184.016 21.2414C185.668 21.2414 186.887 21.5358 187.672 22.1247C188.31 21.8466 188.981 21.6339 189.684 21.4867C190.404 21.3231 191.083 21.2414 191.721 21.2414ZM205.559 21.1678C209.436 21.1678 211.35 23.6949 211.301 28.7493H203.106C203.416 30.4668 204.57 31.3256 206.565 31.3256C207.17 31.3256 207.759 31.2438 208.332 31.0802C208.921 30.9003 209.542 30.6713 210.196 30.3932V33.5338C208.855 34.09 207.35 34.368 205.682 34.368C204.422 34.368 203.318 34.1145 202.37 33.6074C201.421 33.084 200.685 32.3397 200.161 31.3747C199.638 30.4096 199.376 29.2728 199.376 27.9642C199.376 25.805 199.908 24.1366 200.971 22.9589C202.051 21.7648 203.58 21.1678 205.559 21.1678ZM205.412 23.9648C204.103 23.9648 203.326 24.7827 203.081 26.4184H207.669C207.555 25.5351 207.318 24.9054 206.958 24.5292C206.614 24.1529 206.099 23.9648 205.412 23.9648ZM219.337 21.1678C223.213 21.1678 225.127 23.6949 225.078 28.7493H216.883C217.194 30.4668 218.347 31.3256 220.343 31.3256C220.948 31.3256 221.537 31.2438 222.109 31.0802C222.698 30.9003 223.32 30.6713 223.974 30.3932V33.5338C222.633 34.09 221.128 34.368 219.459 34.368C218.2 34.368 217.096 34.1145 216.147 33.6074C215.198 33.084 214.462 32.3397 213.939 31.3747C213.415 30.4096 213.154 29.2728 213.154 27.9642C213.154 25.805 213.685 24.1366 214.748 22.9589C215.828 21.7648 217.357 21.1678 219.337 21.1678ZM219.189 23.9648C217.881 23.9648 217.104 24.7827 216.859 26.4184H221.447C221.332 25.5351 221.095 24.9054 220.735 24.5292C220.392 24.1529 219.876 23.9648 219.189 23.9648ZM227.618 22.6399C228.256 22.2964 229.229 21.9774 230.538 21.683C231.846 21.3886 233.016 21.2414 234.046 21.2414C235.797 21.2414 237.113 21.5849 237.997 22.2719C238.88 22.9589 239.322 24.0875 239.322 25.6578V34H235.666V26.3939C235.666 24.9708 234.864 24.2593 233.261 24.2593C232.901 24.2593 232.533 24.3002 232.157 24.382C231.781 24.4637 231.487 24.5619 231.274 24.6764V34H227.618V22.6399Z" fill="#013975"/>
<path d="M94.7519 51.1477C102.938 51.1477 106.979 56.484 106.875 67.1565H89.5711C90.2274 70.7831 92.6623 72.5964 96.8761 72.5964C98.154 72.5964 99.3974 72.4237 100.606 72.0783C101.85 71.6984 103.162 71.2148 104.544 70.6276V77.2591C101.712 78.4334 98.534 79.0206 95.011 79.0206C92.3515 79.0206 90.0201 78.4852 88.0169 77.4145C86.0136 76.3093 84.4594 74.7378 83.3541 72.7C82.2489 70.6622 81.6963 68.2617 81.6963 65.4986C81.6963 60.9395 82.8188 57.4165 85.0638 54.9297C87.3434 52.4084 90.5727 51.1477 94.7519 51.1477ZM94.4411 57.0539C91.678 57.0539 90.0374 58.7808 89.5193 62.2347H99.2075C98.9657 60.3696 98.4649 59.0399 97.705 58.2455C96.9797 57.4511 95.8917 57.0539 94.4411 57.0539ZM124.103 78.9688C121.478 78.9688 119.198 78.7788 117.264 78.3989C115.33 78.0535 113.534 77.4491 111.876 76.5856V68.6071C113.43 69.8505 115.192 70.8176 117.16 71.5084C119.164 72.1646 121.115 72.4927 123.015 72.4927C126.261 72.4927 127.885 71.2666 127.885 68.8144C127.885 67.7437 127.366 66.9147 126.33 66.3276C125.294 65.7059 123.619 65.0151 121.305 64.2552C120.234 63.9098 119.578 63.6853 119.336 63.5817C116.849 62.7528 114.881 61.6303 113.43 60.2142C112.014 58.7981 111.306 56.6912 111.306 53.8936C111.306 51.9249 111.789 50.1116 112.757 48.4537C113.724 46.7613 115.209 45.4143 117.212 44.4126C119.215 43.411 121.685 42.9102 124.621 42.9102C126.658 42.9102 128.403 43.1002 129.853 43.4801C131.338 43.8255 132.91 44.3954 134.568 45.1898V53.2201C133.117 52.1148 131.563 51.1995 129.905 50.4742C128.247 49.7489 126.572 49.3862 124.88 49.3862C123.36 49.3862 122.134 49.6971 121.201 50.3188C120.303 50.906 119.854 51.7694 119.854 52.9092C119.854 53.8072 120.131 54.5498 120.683 55.137C121.236 55.6896 121.909 56.1213 122.704 56.4322C123.533 56.743 124.845 57.1748 126.641 57.7274C128.783 58.3491 130.544 59.0399 131.926 59.7997C133.307 60.5596 134.412 61.5785 135.241 62.8564C136.07 64.1343 136.485 65.7749 136.485 67.7782C136.485 69.8851 136.001 71.7847 135.034 73.4771C134.067 75.1695 132.634 76.5165 130.734 77.5182C128.869 78.4852 126.658 78.9688 124.103 78.9688ZM152.864 79.2796C149.859 79.2796 147.597 78.5716 146.077 77.1555C144.592 75.7394 143.849 73.7016 143.849 71.0421V57.9346H140.015V52.0285H143.849V44.8271H151.931V52.0285H157.682V57.9346H151.931V70.0578C151.931 70.9558 152.121 71.6293 152.501 72.0783C152.881 72.4927 153.52 72.7 154.418 72.7C154.971 72.7 155.541 72.6136 156.128 72.4409C156.715 72.2337 157.233 71.9574 157.682 71.612V78.1917C156.37 78.917 154.763 79.2796 152.864 79.2796ZM175.353 79.0206C170.932 79.0206 167.616 77.8463 165.406 75.4976C163.195 73.149 162.09 69.6606 162.09 65.0324C162.09 60.1969 163.178 56.6739 165.354 54.4635C167.565 52.253 170.898 51.1477 175.353 51.1477C179.809 51.1477 183.159 52.2875 185.404 54.5671C187.649 56.8121 188.771 60.3005 188.771 65.0324C188.771 69.5915 187.614 73.0626 185.3 75.4458C182.986 77.829 179.67 79.0206 175.353 79.0206ZM175.353 72.8554C177.253 72.8554 178.686 72.1992 179.653 70.8867C180.62 69.5397 181.104 67.5882 181.104 65.0324C181.104 62.2347 180.62 60.2487 179.653 59.0744C178.721 57.8655 177.287 57.2611 175.353 57.2611C173.35 57.2611 171.899 57.8655 171.001 59.0744C170.138 60.2487 169.706 62.2347 169.706 65.0324C169.706 67.6918 170.155 69.6606 171.053 70.9385C171.986 72.2164 173.419 72.8554 175.353 72.8554ZM194.1 54.7743C194.618 54.3253 195.516 53.8245 196.794 53.2719C198.106 52.7192 199.557 52.253 201.146 51.873C202.769 51.4586 204.323 51.2513 205.808 51.2513C208.675 51.2513 210.661 51.6831 211.766 52.5466V58.1937C210.385 57.8828 208.399 57.7274 205.808 57.7274C204.185 57.7274 202.855 57.8137 201.819 57.9864V78.2435H194.1V54.7743ZM226.954 51.1477C235.14 51.1477 239.181 56.484 239.077 67.1565H221.773C222.43 70.7831 224.865 72.5964 229.078 72.5964C230.356 72.5964 231.6 72.4237 232.809 72.0783C234.052 71.6984 235.364 71.2148 236.746 70.6276V77.2591C233.914 78.4334 230.736 79.0206 227.213 79.0206C224.554 79.0206 222.222 78.4852 220.219 77.4145C218.216 76.3093 216.662 74.7378 215.556 72.7C214.451 70.6622 213.898 68.2617 213.898 65.4986C213.898 60.9395 215.021 57.4165 217.266 54.9297C219.546 52.4084 222.775 51.1477 226.954 51.1477ZM226.643 57.0539C223.88 57.0539 222.24 58.7808 221.722 62.2347H231.41C231.168 60.3696 230.667 59.0399 229.907 58.2455C229.182 57.4511 228.094 57.0539 226.643 57.0539Z" fill="#013975"/>
<ellipse cx="43.0362" cy="45.8347" rx="33.0362" ry="32.9912" fill="#013975"/>
<rect x="13.6907" y="35.2578" width="18.0034" height="12.6924" rx="0.90017" fill="white"/>
<ellipse cx="39.3005" cy="27.9663" rx="4.54586" ry="4.50085" fill="white"/>
<path d="M39.2105 45.9247H45.4666C45.4666 45.9247 46.2836 46.065 46.7719 46.5098C47.2554 46.9503 47.582 48.0851 47.582 48.0851L53.7032 63.1179C53.7032 63.1179 53.4213 64.8383 52.578 65.2783C51.6178 65.7793 49.8775 64.6482 49.8775 64.6482L43.9363 50.2005H33.2693C33.2693 50.2005 32.5492 50.2005 31.9191 49.0303C31.3441 47.9624 31.9191 45.9247 31.9191 45.9247L34.2552 34.5891C34.4879 33.46 35.5361 32.6893 36.6832 32.804L38.2653 32.9622L39.598 33.2998C40.7473 33.591 41.4736 34.724 41.2583 35.8899L41.1009 36.743C41.1009 36.743 48.7973 40.8837 52.398 42.9091C53.0443 43.2727 52.933 44.1484 52.578 44.7995C51.9644 45.9247 50.7777 45.6546 50.7777 45.6546L40.4257 39.9386L39.2105 45.9247Z" fill="white"/>
<rect x="15.6711" y="47.9501" width="14.3127" height="1.0802" rx="0.540102" fill="white"/>
<path d="M47.9872 39.8486C49.4786 39.8486 50.6877 38.6194 50.6877 37.1031C50.6877 35.5868 49.4786 34.3575 47.9872 34.3575V39.8486Z" fill="white"/>
<path d="M54.4234 42.189C54.4234 42.189 53.5682 39.7135 52.8481 38.1832C52.6044 37.6654 52.3667 37.3649 51.8579 37.103C51.4441 36.89 50.2376 36.8329 50.2376 36.8329" stroke="white" stroke-width="1.35025"/>
<path d="M58.1591 41.5589V40.7487C58.1591 40.7487 56.9309 40.8461 56.1787 41.0638C55.1668 41.3566 53.7482 42.234 53.7482 42.234C53.7482 42.234 52.3997 43.0892 52.308 44.8895C52.2293 46.434 54.3784 48.2651 54.3784 48.2651L56.1787 59.2022C56.1787 59.2022 57.0638 62.1108 56.1787 63.568C55.4977 64.6892 53.4332 65.5034 53.4332 65.5034L48.5723 65.8184L43.4413 65.5034C43.4413 65.5034 41.4862 65.5034 39.7956 62.1278C38.9403 60.42 39.2555 57.2668 39.2555 57.2668L40.0657 53.4861C40.0657 53.4861 41.179 53.4861 41.3709 52.1809C41.5629 50.8756 40.0657 50.4255 40.0657 50.4255H27.3733L27.0582 49.2103H25.753L26.3831 50.9656C26.3831 50.9656 25.9436 51.3707 26.023 52.2709C26.0802 52.919 27.1482 53.4861 27.1482 53.4861H22.8724C22.4996 53.4861 22.1973 53.7884 22.1973 54.1612L20.622 49.0753H19.3618L20.1719 51.5508L21.0271 54.4313H19.1817V57.2668H20.622L21.1621 57.5819H21.5672L21.0271 59.1122L20.622 60.7775L20.532 62.4428H21.9272C21.9272 62.4428 20.4456 64.3449 20.0819 65.8635C19.8035 67.0258 20.0819 69.4641 20.0819 69.4641C20.0819 69.4641 22.392 72.6518 24.4927 74.1C25.798 74.9998 29.0386 76.2154 31.064 76.2154C31.064 76.2154 34.4409 74.4901 35.6098 72.5247C36.7111 70.6729 36.735 67.1237 36.735 67.1237L38.3553 67.7538L40.7408 68.2939H48.5723V68.924H42.5861L42.046 69.4641L42.5861 70.0492H48.5723L50.0575 71.0394L51.0477 70.0492V68.1139H56.1787C56.1787 68.1139 56.101 70.6112 56.6288 71.6245C57.754 73.785 59.9594 74.1 59.9594 74.1C59.9594 74.1 63.4097 72.188 66.1256 69.4641C68.7361 66.846 70.9865 63.568 70.9865 63.568C70.9865 63.568 69.0686 61.523 67.7909 61.0025C66.549 60.4966 64.4153 60.3724 64.4153 60.3724L60.3645 49.8404L59.8694 49.2553L59.2843 48.8953H58.1591V48.2651C58.1591 48.2651 60.3809 47.545 60.3645 44.8895C60.3481 42.234 58.1591 41.5589 58.1591 41.5589Z" fill="white"/>
</svg>
